<?xml version="1.0" encoding="utf-8"?>
<!-- Generator: Adobe Illustrator 29.7.1, SVG Export Plug-In . SVG Version: 9.03 Build 0)  -->
<svg version="1.0" id="Layer_1" xmlns="http://www.w3.org/2000/svg" xmlns:xlink="http://www.w3.org/1999/xlink" x="0px" y="0px"
	 viewBox="0 0 1000 1000" style="enable-background:new 0 0 1000 1000;" xml:space="preserve">
<style type="text/css">
	.st0{fill:#714B67;}
	.st1{fill:#FFFFFF;}
</style>
<g>
	<g>
		<path class="st0" d="M872.7,797.1C641.9,1077.7,182,1004.9,56.5,663.7C-62.6,339.9,192.7,13.6,531.6,30.7
			C912.4,50,1118.1,498.6,872.7,797.1z M809.7,429.9L502.3,742.5L196.6,430.1l127.7-130c6.4,0.6,13.1-1.4,19-1.7
			c49.5-1.9,101,1,150.1,1.5c17.4,0.2,34.7-2.2,51.7,0.9l132.4,129.1L499.6,609L327.4,441.5l108.4-105.7l-1.3-2.6h-84.7l-96.3,92.4
			c-3.9,3.7-3.8,9.3-2.6,14.2l248,248.7l6.7-3.2l243.4-249.4c4.1-5.9,3.4-11.8-0.7-17.4C693,368.2,641.7,313.7,587.2,262.6
			c-4.8-4.5-17.1-17.2-21.3-19.8c-2.3-1.4-4.1-2.3-6.9-2L298.3,242L123.5,414.9c-9,13.3,4.9,24.6,13.2,33.8
			c25.8,28.3,53.8,55,80.3,82.7c92.4,96.7,184.9,193.3,279.1,288.1c6,3.7,9.4,3.4,14.8-0.6c16.7-12.5,41.9-41.7,57.8-57.7
			c98.6-100,197.2-200.9,293.2-303.5c5.1-5.5,21.4-21.7,22.8-27.2c1.9-7,1.5-13.5-3.6-19c-58.9-56.6-115.9-115.2-175.8-170.6h-86.6
			L809.7,429.9z"/>
		<path class="st1" d="M618.6,240.8l191.1,189.1L502.3,742.5L196.6,430.1l127.7-130c6.4,0.6,13.1-1.4,19-1.7
			c49.5-1.9,101,1,150.1,1.5c17.4,0.2,34.7-2.2,51.7,0.9l132.4,129.1L499.6,609L327.4,441.5l108.4-105.7l-1.3-2.6h-84.7l-96.3,92.4
			c-3.9,3.7-3.8,9.3-2.6,14.2l248,248.7l6.7-3.2l243.4-249.4c4.1-5.9,3.4-11.8-0.7-17.4C693,368.2,641.7,313.7,587.2,262.6
			c-4.8-4.5-17.1-17.2-21.3-19.8c-2.3-1.4-4.1-2.3-6.9-2L298.3,242L123.5,414.9c-9,13.3,4.9,24.6,13.2,33.8
			c25.8,28.3,53.8,55,80.3,82.7c92.4,96.7,184.9,193.3,279.1,288.1c6,3.7,9.4,3.4,14.8-0.6c16.7-12.5,41.9-41.7,57.8-57.7
			c98.6-100,197.2-200.9,293.2-303.5c5.1-5.5,21.4-21.7,22.8-27.2c1.9-7,1.5-13.5-3.6-19c-58.9-56.6-115.9-115.2-175.8-170.6H618.6z
			"/>
	</g>
</g>
</svg>
